# xmcd
#
# Track frame offsets:
#	150
#	10109
#	22163
#	32771
#	44580
#	57382
#	71197
#	88701
#	101068
#	113204
#	127203
#	137117
#	149435
#	160468
#	170233
#	184661
#	202467
#	215833
#	229797
#	239658
#
# Disc length: 3338 seconds
#
# Revision: 0
# Processed by: cddbd v1.5.1PL0 Copyright (c) Steve Scherf et al.
# Submitted via: EasyCDDAExtractor 4.6.9.1
#
DISCID=4a0d0814
DTITLE=The Louvin Brothers - 20 All-Time Greatest Hits
DYEAR=2002
DGENRE=Country
TTITLE0=I Don't Believe You've Met My Baby
TTITLE1=Hoping That You're Hoping
TTITLE2=You're Running Wild
TTITLE3=When I Stop Dreaming
TTITLE4=My Baby's Gone
TTITLE5=I Love You Best Of All
TTITLE6=Knoxville Girl
TTITLE7=Must You Throw Dirt In My Face
TTITLE8=How's The World Treating You
TTITLE9=Great Speckled Bird
TTITLE10=Pitfall
TTITLE11=Kentucky
TTITLE12=She Didn't Even Know I Was Gone
TTITLE13=While You're Cheating On Me
TTITLE14=Searching For A Soldier's Grave
TTITLE15=The Precious Jewel
TTITLE16=Broken Engagement
TTITLE17=Wabash Cannonball
TTITLE18=I've Known A Lady
TTITLE19=Give This Message To Your Heart
EXTD=
EXTT0=
EXTT1=
EXTT2=
EXTT3=
EXTT4=
EXTT5=
EXTT6=
EXTT7=
EXTT8=
EXTT9=
EXTT10=
EXTT11=
EXTT12=
EXTT13=
EXTT14=
EXTT15=
EXTT16=
EXTT17=
EXTT18=
EXTT19=
PLAYORDER=
